<?xml version="1.0" encoding="utf-8"?>
<!-- Generator: Adobe Illustrator 28.0.0, SVG Export Plug-In . SVG Version: 6.00 Build 0)  -->
<svg version="1.1" id="Capa_1" xmlns="http://www.w3.org/2000/svg" xmlns:xlink="http://www.w3.org/1999/xlink" x="0px" y="0px"
	 viewBox="0 0 1920 1080" style="enable-background:new 0 0 1920 1080;" xml:space="preserve">
<style type="text/css">
	.st0{fill:url(#SVGID_1_);}
	.st1{fill:#243760;}
</style>
<g>
	
		<linearGradient id="SVGID_1_" gradientUnits="userSpaceOnUse" x1="367.1434" y1="135.3297" x2="365.6734" y2="354.9497" gradientTransform="matrix(1 0 0 1 0 314)">
		<stop  offset="0" style="stop-color:#4C7CFC"/>
		<stop  offset="1" style="stop-color:#7636FC"/>
	</linearGradient>
	<path class="st0" d="M350.7,422.9v266.6c17.5,0,31.7-14.5,31.7-36.5V390.5C364.9,390.5,350.7,405,350.7,422.9z"/>
	<path class="st1" d="M316.5,596.2c0,0-15.4-7.1-20.4-9.8c-37.1-19.5-48.4-49.3-48.4-64.2c0-18.3,4.7-32,12.3-43.1
		c-2.4,14.8-3.3,31,1.9,45c0,0,4.7-3.8,20.6-14.4c9.1-6.1,37.4-23,37.4-23c17.1-11.6,16-15.4,16-26.5v-37.6c0,0-67,39.3-88.1,54.3
		c-21.3,15.2-37.8,37-37.8,70.7s21.3,56.8,65.7,79.3c13,6.6,60.1,29,60.1,29v-37C335.8,605.8,331.7,604.1,316.5,596.2L316.5,596.2z"
		/>
	<path class="st1" d="M485.4,477c-21-15-88.1-54.3-88.1-54.3v37.6c0,11.1-1.1,14.9,16,26.5c0,0,28.3,16.9,37.4,23
		c15.9,10.7,34.8,25.5,34.8,59.7c0,16.5-4.7,27.5-14.8,40c3.3-17.4,5-27.5,1.2-40.5c-10.7,6-19.2,9.9-34.9,17.4l-20.4,9.8
		c-15.2,8-19.4,9.7-19.4,22.7v37c0,0,47.2-22.4,60.1-29c44.4-22.6,65.7-45.3,65.7-79.3S506.7,492.1,485.4,477L485.4,477z"/>
	<path class="st1" d="M820.4,512c0-17.7-16-28.5-39.6-28.5c-26.5,0-44.5,13.4-47.2,37.3h-29.5c2.6-38,27.8-62.9,76.6-62.9
		s70.1,26.2,70.1,62.6V606c0,7.2,3,11.1,9.5,11.1h13.4v25.5H856c-21.6,0-33.1-12.8-33.1-31.8V607c-9.2,26.9-33.1,40.6-61.9,40.6
		c-35.4,0-63.9-19.3-63.9-58.6c0-37,26.2-56,69.4-56h53.8L820.4,512L820.4,512z M767.3,558.5c-29.5,0-39.3,14.7-39.3,30.5
		c0,16.7,11.1,33.1,38,33.1c29.5,0,55.3-19.3,55.3-63.2L767.3,558.5"/>
	<path class="st1" d="M884.6,552.3c0-55.7,33.4-94.3,89.4-94.3c51.1,0,79.3,33.1,83.2,73.4h-30.8c-2-25.5-20.3-47.8-52.4-47.8
		c-36.4,0-58.6,28.5-58.6,68.8c0,42.6,25.5,69.4,58.6,69.4s49.5-24.2,52.4-44.2h30.8c-4.9,36.7-33.7,69.8-83.2,69.8
		C920.6,647.2,884.6,609.6,884.6,552.3L884.6,552.3z"/>
	<path class="st1" d="M1248.5,562.4h-140.8c3.6,37,25.9,59.3,56.7,59.3c24.2,0,43.6-13.8,50.8-34.4h31.8
		c-7.5,34.7-39.6,59.9-82.5,59.9c-52.4,0-87.8-37.7-87.8-94.7s36-94.7,87.8-94.7c48.5,0,84.2,34.7,84.2,80.9L1248.5,562.4
		L1248.5,562.4z M1108,536.2h110.7c-3.3-30.8-23.9-52.7-54.4-52.7S1111.6,506.7,1108,536.2z"/>
	<path class="st1" d="M1309.1,495.9h0.7c12.8-23.6,35.7-38,64.8-38c44.9,0,82.9,33.1,82.9,93.7s-38,95.6-82.9,95.6
		c-29.2,0-52.1-14.4-64.8-38h-0.7c0.7,7.5,0.7,13.4,0.7,20.3v59.8h-29.5V462.5h29.5v13.1C1309.7,482.5,1309.7,488.4,1309.1,495.9
		L1309.1,495.9z M1426.7,551.6c0-40.9-24.2-68.5-59-68.1c-35.1,0.3-58.3,28.2-58.3,67.8s23.3,70.1,58.3,70.4
		C1402.4,622,1426.7,593.5,1426.7,551.6L1426.7,551.6z"/>
	<path class="st1" d="M1489.2,390.6h29.5v76.8c0,8.2,0,14.4-0.7,26.5h0.7c9.2-17.4,26.9-36,57.7-36c39,0,62.9,27.8,62.9,71.1v113.7
		h-29.5V532c0-33.4-17-47.8-40.6-47.8c-27.2,0-50.4,19.6-50.4,57v101.5h-29.5L1489.2,390.6L1489.2,390.6z"/>
	<path class="st1" d="M1679.2,401.3h30.8v30.8h-30.8V401.3z M1679.9,462.5h29.5v180.2h-29.5V462.5L1679.9,462.5z"/>
	<path class="st1" d="M608.1,642.8V488.1h-22.8v-25.6h23v-36.3c0-12.1,0.8-21.1,6.7-27c6-5.8,15-8.8,27.1-8.8h48v25.1h-38.4
		c-5.1,0-8.8,1-10.8,3c-2.1,2-3.2,7.8-3.2,13.2v30.7h44.1v25.7h-44.1v154.7L608.1,642.8L608.1,642.8z"/>
</g>
</svg>
